<mxfile host="65bd71144e">
    <diagram id="NwXQdflyjd8jCfbu7vcl" name="Page-1">
        <mxGraphModel dx="1007" dy="594" grid="1" gridSize="10" guides="1" tooltips="1" connect="1" arrows="1" fold="1" page="1" pageScale="1" pageWidth="827" pageHeight="1169" math="0" shadow="0">
            <root>
                <mxCell id="0"/>
                <mxCell id="1" parent="0"/>
                <mxCell id="2" value="Airflow" style="whiteSpace=wrap;html=1;aspect=fixed;" vertex="1" parent="1">
                    <mxGeometry x="270" y="270" width="80" height="80" as="geometry"/>
                </mxCell>
                <mxCell id="3" value="Postgres as DWH" style="whiteSpace=wrap;html=1;aspect=fixed;" vertex="1" parent="1">
                    <mxGeometry x="390" y="270" width="80" height="80" as="geometry"/>
                </mxCell>
                <mxCell id="4" value="DBT" style="whiteSpace=wrap;html=1;aspect=fixed;" vertex="1" parent="1">
                    <mxGeometry x="500" y="270" width="80" height="80" as="geometry"/>
                </mxCell>
                <mxCell id="5" value="Grafana as Visulation" style="whiteSpace=wrap;html=1;aspect=fixed;" vertex="1" parent="1">
                    <mxGeometry x="620" y="270" width="80" height="80" as="geometry"/>
                </mxCell>
                <mxCell id="6" value="Slack as Data Source" style="whiteSpace=wrap;html=1;aspect=fixed;" vertex="1" parent="1">
                    <mxGeometry x="150" y="270" width="80" height="80" as="geometry"/>
                </mxCell>
            </root>
        </mxGraphModel>
    </diagram>
</mxfile>